<svg width="29" height="22" viewBox="0 0 29 22" fill="none" xmlns="http://www.w3.org/2000/svg">
<g clip-path="url(#clip0_546_8057)">
<path fill-rule="evenodd" clip-rule="evenodd" d="M0 0H41.325V1.69583H0V0ZM0 3.38708H41.325V5.08292H0V3.38708ZM0 6.76958H41.325V8.46542H0V6.76958ZM0 10.1521H41.325V11.8479H0V10.1521ZM0 13.5438H41.325V15.2304H0V13.5438ZM0 16.9217H41.325V18.6175H0V16.9217ZM0 20.3042H41.325V22H0V20.3042Z" fill="#BD3D44"/>
<path fill-rule="evenodd" clip-rule="evenodd" d="M0 1.69586H41.325V3.38711H0V1.69586ZM0 5.07836H41.325V6.76961H0V5.07836ZM0 8.46086H41.325V10.1567H0V8.46086ZM0 11.8479H41.325V13.5438H0V11.8479ZM0 15.2304H41.325V16.9263H0V15.2304ZM0 18.6129H41.325V20.3088H0V18.6129Z" fill="white"/>
<path fill-rule="evenodd" clip-rule="evenodd" d="M0 0H16.53V11.8479H0V0Z" fill="#192F5D"/>
<path fill-rule="evenodd" clip-rule="evenodd" d="M1.37719 0.50415L1.53125 0.976234H2.01156L1.62188 1.26498L1.77141 1.73707L1.37719 1.44373L0.9875 1.73248L1.1325 1.26498L0.738281 0.976234H1.23219L1.37719 0.50415ZM4.13219 0.50415L4.28172 0.976234H4.77109L4.37688 1.26498L4.52188 1.73707L4.13219 1.44373L3.73797 1.73248L3.8875 1.26498L3.49781 0.976234H3.97813L4.13219 0.50415ZM6.88719 0.50415L7.03672 0.976234H7.52156L7.13187 1.26498L7.28141 1.73707L6.88719 1.44373L6.49297 1.73248L6.6425 1.26498L6.24828 0.976234H6.73766L6.88719 0.50415ZM9.64219 0.50415L9.79172 0.976234H10.2811L9.88688 1.26498L10.0364 1.73707L9.64219 1.44373L9.24797 1.73248L9.40203 1.26498L9.00328 0.976234H9.48812L9.64219 0.50415ZM12.3972 0.50415L12.5467 0.976234H13.0316L12.6419 1.26498L12.7914 1.73707L12.3972 1.44373L12.003 1.73248L12.1525 1.26498L11.7628 0.976234H12.2477L12.3972 0.50415ZM15.1522 0.50415L15.3017 0.976234H15.7911L15.3923 1.26498L15.5464 1.73707L15.1522 1.44373L14.758 1.73248L14.912 1.26498L14.5133 0.976234H15.0027L15.1522 0.50415ZM2.75469 1.69582L2.90422 2.16332H3.39813L3.00391 2.44748L3.14891 2.91957L2.76375 2.63082L2.36953 2.91957L2.51 2.44748L2.12938 2.16332H2.61422L2.75469 1.69582ZM5.50969 1.69582L5.66375 2.16332H6.14859L5.74984 2.44748L5.90391 2.91957L5.50969 2.63082L5.11547 2.91957L5.265 2.44748L4.87078 2.16332H5.36016L5.50969 1.69582ZM8.26469 1.69582L8.41422 2.16332H8.90359L8.50938 2.44748L8.65891 2.91957L8.26469 2.63082L7.87047 2.91957L8.02 2.44748L7.63031 2.16332H8.11063L8.26469 1.69582ZM11.0197 1.69582L11.1738 2.16332H11.6586L11.2598 2.44748L11.4139 2.91957L11.0197 2.63082L10.63 2.91957L10.775 2.44748L10.3808 2.16332H10.8747L11.0197 1.69582ZM13.7747 1.69582L13.9242 2.16332H14.4136L14.0194 2.44748L14.1689 2.91957L13.7747 2.63082L13.3805 2.91957L13.53 2.44748L13.1403 2.16332H13.6252L13.7747 1.69582ZM1.37719 2.86915L1.53125 3.34582H2.01156L1.62188 3.63457L1.77141 4.10207L1.37719 3.81332L0.9875 4.10207L1.1325 3.63457L0.738281 3.34582H1.23219L1.37719 2.86915ZM4.13219 2.86915L4.28172 3.34582H4.77109L4.37688 3.63457L4.52188 4.10207L4.13219 3.81332L3.73797 4.10207L3.8875 3.62998L3.49781 3.34123H3.97813L4.13219 2.86915ZM6.88719 2.86915L7.03672 3.34123H7.52156L7.13187 3.62998L7.28141 4.09748L6.88719 3.80873L6.49297 4.09748L6.6425 3.6254L6.24828 3.33665H6.73766L6.88719 2.86915ZM9.64219 2.86915L9.79172 3.34123H10.2811L9.88688 3.62998L10.0364 4.09748L9.64219 3.80873L9.24797 4.09748L9.40203 3.6254L9.00328 3.33665H9.48812L9.64219 2.86915ZM12.3972 2.86915L12.5467 3.34123H13.0316L12.6419 3.62998L12.7914 4.09748L12.3972 3.80873L12.003 4.09748L12.1525 3.6254L11.7628 3.33665H12.2477L12.3972 2.86915ZM15.1522 2.86915L15.3017 3.34123H15.7911L15.3923 3.62998L15.5464 4.09748L15.1522 3.80873L14.758 4.09748L14.912 3.6254L14.5133 3.33665H15.0027L15.1522 2.86915ZM2.75469 4.06082L2.90422 4.52832H3.39813L3.00391 4.81707L3.15344 5.28915L2.75922 4.99582L2.365 5.28457L2.51453 4.81707L2.12484 4.52832H2.60969L2.75469 4.06082ZM5.50969 4.06082L5.66375 4.52832H6.14859L5.74984 4.81707L5.90391 5.28915L5.50969 4.99582L5.11547 5.28457L5.265 4.81707L4.87078 4.52832H5.36016L5.50969 4.06082ZM8.26469 4.06082L8.41422 4.52832H8.90359L8.50938 4.81707L8.65891 5.28915L8.26469 4.99582L7.87047 5.28457L8.02 4.81707L7.63031 4.52832H8.11063L8.26469 4.06082ZM11.0197 4.06082L11.1738 4.52832H11.6586L11.2644 4.81707L11.4139 5.28915L11.0197 4.99582L10.63 5.28457L10.775 4.81707L10.3808 4.52832H10.8747L11.0197 4.06082ZM13.7747 4.06082L13.9242 4.52832H14.4136L14.0194 4.81707L14.1689 5.28915L13.7747 4.99582L13.3805 5.28457L13.53 4.81707L13.1403 4.52832H13.6252L13.7747 4.06082ZM1.37719 5.2479L1.53125 5.7154H2.01156L1.62188 6.00415L1.77141 6.47623L1.37719 6.1829L0.9875 6.47165L1.1325 6.00415L0.738281 5.7154H1.23219L1.37719 5.2479ZM4.13219 5.2479L4.28172 5.7154H4.77109L4.37688 6.00415L4.52188 6.47165L4.13219 6.1829L3.73797 6.47165L3.8875 6.00415L3.49781 5.7154H3.97813L4.13219 5.2479ZM6.88719 5.2479L7.03672 5.7154H7.52156L7.13187 6.00415L7.28141 6.47623L6.88719 6.1829L6.49297 6.47165L6.6425 6.00415L6.24828 5.7154H6.73766L6.88719 5.2479ZM9.64219 5.2479L9.79172 5.7154H10.2811L9.88688 6.00415L10.0364 6.47623L9.64219 6.1829L9.24797 6.47165L9.40203 6.00415L9.00328 5.7154H9.48812L9.64219 5.2479ZM12.3972 5.2479L12.5467 5.7154H13.0316L12.6419 6.00415L12.7914 6.47623L12.3972 6.1829L12.003 6.47165L12.1525 6.00415L11.7628 5.7154H12.2477L12.3972 5.2479ZM15.1522 5.2479L15.3017 5.7154H15.7911L15.3923 6.00415L15.5464 6.47623L15.1522 6.1829L14.758 6.47165L14.9075 6.00415L14.5088 5.7154H14.9981L15.1522 5.2479ZM2.75469 6.4304L2.90422 6.90248H3.39813L3.00391 7.18665L3.15344 7.65873L2.75922 7.3654L2.365 7.65873L2.51453 7.18665L2.12484 6.8979H2.60969L2.75469 6.4304ZM5.50969 6.4304L5.66375 6.90248H6.14859L5.74984 7.18665L5.90391 7.65873L5.50969 7.3654L5.11547 7.65873L5.265 7.18665L4.87078 6.8979H5.36016L5.50969 6.4304ZM8.26469 6.4304L8.41422 6.90248H8.90359L8.50938 7.18665L8.65891 7.65873L8.26469 7.3654L7.87047 7.65873L8.02 7.18665L7.63031 6.8979H8.11063L8.26469 6.4304ZM11.0197 6.4304L11.1738 6.90248H11.6586L11.2644 7.18665L11.4139 7.65873L11.0197 7.3654L10.63 7.65873L10.775 7.18665L10.3808 6.8979H10.8747L11.0197 6.4304ZM13.7747 6.4304L13.9242 6.90248H14.4136L14.0194 7.18665L14.1689 7.65873L13.7747 7.3654L13.3805 7.65873L13.53 7.18665L13.1403 6.8979H13.6252L13.7747 6.4304ZM1.37719 7.6129L1.53125 8.08498H2.01156L1.62188 8.37373L1.77141 8.83665L1.37719 8.55248L0.9875 8.83665L1.1325 8.36915L0.738281 8.0804H1.23219L1.37719 7.6129ZM4.13219 7.6129L4.28172 8.08498H4.77109L4.37688 8.37373L4.52641 8.83665L4.13219 8.55248L3.73797 8.83665L3.89203 8.36915L3.49781 8.0804H3.97813L4.13219 7.6129ZM6.88719 7.6129L7.03672 8.08498H7.52156L7.13187 8.37373L7.28141 8.83665L6.88719 8.55248L6.49297 8.83665L6.6425 8.36915L6.24828 8.0804H6.73766L6.88719 7.6129ZM9.64219 7.6129L9.79172 8.08498H10.2811L9.88688 8.37373L10.0364 8.83665L9.64219 8.55248L9.24797 8.83665L9.40203 8.36915L9.00328 8.0804H9.48812L9.64219 7.6129ZM12.3972 7.6129L12.5467 8.08498H13.0316L12.6419 8.37373L12.7914 8.83665L12.3972 8.55248L12.003 8.83665L12.1525 8.36915L11.7628 8.0804H12.2477L12.3972 7.6129ZM15.1522 7.6129L15.3017 8.08498H15.7911L15.3923 8.37373L15.5464 8.83665L15.1522 8.55248L14.758 8.83665L14.912 8.36915L14.5133 8.0804H15.0027L15.1522 7.6129ZM2.75469 8.79998L2.90422 9.26748H3.39813L3.00391 9.55623L3.15344 10.0283L2.75922 9.73498L2.365 10.0237L2.51453 9.55623L2.12484 9.26748H2.60969L2.75469 8.79998ZM5.50969 8.79998L5.66375 9.26748H6.14859L5.74984 9.55623L5.90391 10.0283L5.50969 9.73498L5.11547 10.0237L5.265 9.55623L4.87078 9.26748H5.36016L5.50969 8.79998ZM8.26469 8.79998L8.41422 9.26748H8.90359L8.50938 9.55623L8.65891 10.0283L8.26469 9.73498L7.87047 10.0237L8.02 9.55623L7.63031 9.26748H8.11063L8.26469 8.79998ZM11.0197 8.79998L11.1738 9.26748H11.6586L11.2644 9.55623L11.4139 10.0283L11.0197 9.73498L10.63 10.0237L10.775 9.55623L10.3808 9.26748H10.8747L11.0197 8.79998ZM13.7747 8.79998L13.9242 9.26748H14.4136L14.0194 9.55623L14.1689 10.0283L13.7747 9.73498L13.3805 10.0237L13.53 9.55623L13.1403 9.26748H13.6252L13.7747 8.79998ZM1.37719 9.98707L1.53125 10.4546H2.01156L1.62188 10.7433L1.77141 11.2108L1.37719 10.9221L0.9875 11.2108L1.1325 10.7387L0.738281 10.45H1.23219L1.37719 9.98707ZM4.13219 9.98707L4.28172 10.4546H4.77109L4.37688 10.7433L4.52641 11.2108L4.13219 10.9221L3.73797 11.2108L3.89203 10.7387L3.49781 10.45H3.97813L4.13219 9.98707ZM6.88719 9.98707L7.03672 10.4546H7.52156L7.14094 10.7433L7.29047 11.2108L6.89625 10.9221L6.50203 11.2108L6.65156 10.7387L6.25734 10.45H6.74672L6.88719 9.98707ZM9.64219 9.98707L9.79172 10.4546H10.2811L9.88688 10.7433L10.0364 11.2108L9.64219 10.9221L9.24797 11.2108L9.40203 10.7387L9.00328 10.45H9.48812L9.64219 9.98707ZM12.3972 9.98707L12.5467 10.4546H13.0316L12.6419 10.7433L12.7914 11.2108L12.3972 10.9221L12.003 11.2108L12.1525 10.7387L11.7628 10.45H12.2477L12.3972 9.98707ZM15.1522 9.98707L15.3017 10.4546H15.7911L15.3923 10.7433L15.5464 11.2108L15.1522 10.9221L14.758 11.2108L14.912 10.7387L14.5133 10.45H15.0027L15.1522 9.98707Z" fill="white"/>
</g>
<defs>
<clipPath id="clip0_546_8057">
<rect width="29" height="22" rx="2" fill="white"/>
</clipPath>
</defs>
</svg>
