<svg width="29" height="22" viewBox="0 0 29 22" fill="none" xmlns="http://www.w3.org/2000/svg">
<g clip-path="url(#clip0_546_8049)">
<path fill-rule="evenodd" clip-rule="evenodd" d="M-1.83008 0H30.8289V22H-1.83008V0Z" fill="#FF0000"/>
<path fill-rule="evenodd" clip-rule="evenodd" d="M8.08823 11.2191C8.66597 10.5059 9.86816 11.202 10.8495 10.6906C9.6855 10.7551 9.05254 10.1234 8.13496 10.2137C9.08652 9.6207 9.8979 10.407 10.9599 10.0934C9.55381 9.97305 9.61328 9.33281 8.33037 9.24258C9.46885 8.75274 10.0296 9.74961 11.1468 9.52188C9.82993 9.2168 9.66001 8.43477 8.68296 8.26719C10.1103 8.05234 10.0168 8.90313 11.4145 9.00625C9.99561 8.3918 10.3652 7.85469 9.17998 7.38633C10.5096 7.35625 10.4204 8.28867 11.7713 8.5293C10.6158 7.79023 10.756 7.11563 9.80869 6.58711C10.9344 6.60859 11.0406 7.77305 12.1918 8.13398C11.1681 7.31328 11.4357 6.61719 10.5521 5.88242C11.6736 6.14883 11.5079 7.1543 12.6761 7.79883C11.8095 6.82773 12.1409 6.13164 11.389 5.33672C12.468 5.68477 12.0559 6.64297 13.1731 7.55391C12.5359 6.48398 12.931 5.80078 12.298 4.90273C13.3006 5.42266 12.8163 6.40234 13.7424 7.37344C13.3048 6.27773 13.7424 5.59883 13.2963 4.62773C14.1544 5.27227 13.6447 6.31641 14.3371 7.31328C14.0822 5.93828 14.6685 5.71484 14.4858 4.51172C15.1357 5.31953 14.4093 6.12734 14.9106 7.31758C14.8469 5.96406 15.5605 5.65039 15.4374 4.56758C16.0788 5.53867 15.0763 6.38516 15.4968 7.425C15.603 6.14453 16.4356 5.80938 16.4484 4.8125C16.9582 5.72773 15.8537 6.38945 16.0321 7.60547C16.3932 6.26484 17.281 6.10156 17.3915 5.19922C17.6931 6.25625 16.4824 6.74609 16.5546 7.92344C16.9157 6.7332 18.0244 6.59141 18.2538 5.71484C18.394 6.83203 17.3022 7.03398 16.9921 8.27148C17.5656 7.26172 18.5724 7.18008 19.0227 6.38086C18.9887 7.48945 17.7568 7.63555 17.3787 8.67109C18.0881 7.79023 18.9802 7.94063 19.6896 7.16289C19.6132 8.16406 18.36 8.1082 17.6931 9.14375C18.462 8.42617 19.6217 8.64102 20.2122 8.02227C20.1824 8.90742 18.6446 8.83867 17.9182 9.63359C18.8103 9.13516 19.9488 9.42734 20.603 8.96758C20.484 9.74102 18.8613 9.56055 18.0839 10.1707C19.1544 9.86992 19.9828 10.3297 20.8451 9.99883C20.4246 10.7508 18.9505 10.2738 18.1688 10.7637C19.1034 10.6047 20.089 11.1762 20.9343 10.9914C20.6582 11.6445 19.0397 10.9484 18.1731 11.3566C19.2096 11.348 19.8851 12.0227 20.8494 11.9754C20.3269 12.5684 18.908 11.7563 18.0796 11.8938C19.0907 12.1086 19.8638 12.9508 20.6285 12.9938C19.9955 13.4793 18.823 12.3707 17.8672 12.5082C18.8528 12.7746 19.6769 13.9047 20.2376 13.9305C19.6302 14.3516 18.4322 12.9637 17.6124 13.0152C18.6106 13.4707 19.0652 14.6266 19.7236 14.7898C18.9123 15.052 18.1136 13.5352 17.2428 13.4793C18.2538 14.1238 18.309 15.1121 19.0864 15.5504C18.2666 15.7523 17.6846 14.0379 16.8222 13.8918C17.6506 14.5063 17.778 15.8254 18.326 16.2379C17.4934 16.2809 17.1918 14.4891 16.3379 14.2313C17.0686 14.85 16.8944 16.1906 17.4637 16.7664C16.5971 16.5816 16.7075 15.0219 15.8027 14.4934C16.4526 15.327 16.1213 16.5086 16.5461 17.1746C15.7007 16.8309 16.0661 15.4301 15.2632 14.6395C15.7007 15.5246 15.2292 16.5559 15.5775 17.4109C14.8044 17.0285 15.3227 15.3742 14.7322 14.7168C15.0041 15.7395 14.5028 16.5859 14.7067 17.5012C13.9166 16.5773 14.8256 15.6449 14.1417 14.7039C14.3201 15.7824 13.5725 16.5387 13.6914 17.441C13.0669 16.702 14.0312 15.5203 13.5427 14.5879C13.6447 15.6492 12.6804 16.5816 12.7483 17.252C12.2386 16.3926 13.3133 15.3785 13.0245 14.4031C12.965 15.4172 11.9879 15.9672 11.8053 16.891C11.4782 15.8727 12.6379 15.1379 12.5359 14.1367C12.2046 15.0863 11.2615 15.4688 10.9302 16.3926C10.6583 15.3742 12.0347 14.8371 12.0687 13.7715C11.6438 14.7684 10.5181 14.9918 10.1443 15.7566C10.0041 14.7469 11.5801 14.2957 11.6396 13.3375C11.1298 14.257 9.8979 14.2957 9.4731 15.0262C9.40938 14.0207 11.0704 13.8961 11.3295 12.8434C10.824 13.6254 9.4731 13.5266 8.90811 14.1625C8.99731 13.2301 10.7942 13.1742 11.0831 12.332C10.4119 12.9852 9.17148 12.7188 8.47056 13.2344C8.86138 12.3148 10.5479 12.5082 10.9259 11.8465C10.1825 12.2375 8.86138 11.8551 8.20718 12.2504C8.8019 11.3824 10.1103 11.9023 10.8537 11.3051C9.64727 11.4813 8.92085 10.9957 8.08398 11.2191H8.08823Z" fill="#FFFF00"/>
<path fill-rule="evenodd" clip-rule="evenodd" d="M18.7312 11.0043C18.7312 12.1354 18.287 13.2201 17.4963 14.0199C16.7056 14.8197 15.6332 15.269 14.515 15.269C13.3968 15.269 12.3244 14.8197 11.5337 14.0199C10.743 13.2201 10.2988 12.1354 10.2988 11.0043C10.2988 9.87384 10.7428 8.78965 11.5331 7.99028C12.3234 7.1909 13.3953 6.74182 14.5129 6.74182C15.6305 6.74182 16.7024 7.1909 17.4927 7.99028C18.283 8.78965 18.727 9.87384 18.727 11.0043H18.7312Z" fill="#FFFF00"/>
<path fill-rule="evenodd" clip-rule="evenodd" d="M18.1876 11.0129C18.1876 11.9964 17.8014 12.9396 17.1138 13.635C16.4263 14.3304 15.4938 14.7211 14.5215 14.7211C13.5492 14.7211 12.6168 14.3304 11.9292 13.635C11.2417 12.9396 10.8555 11.9964 10.8555 11.0129C10.8555 10.0294 11.2417 9.08622 11.9292 8.3908C12.6168 7.69537 13.5492 7.30469 14.5215 7.30469C15.4938 7.30469 16.4263 7.69537 17.1138 8.3908C17.8014 9.08622 18.1876 10.0294 18.1876 11.0129V11.0129Z" fill="#FF0000"/>
<path fill-rule="evenodd" clip-rule="evenodd" d="M17.6765 11.0215C17.6765 11.866 17.3448 12.6758 16.7545 13.2729C16.1642 13.87 15.3635 14.2055 14.5287 14.2055C13.6938 14.2055 12.8932 13.87 12.3028 13.2729C11.7125 12.6758 11.3809 11.866 11.3809 11.0215C11.3809 10.1771 11.7125 9.36721 12.3028 8.77009C12.8932 8.17298 13.6938 7.83752 14.5287 7.83752C15.3635 7.83752 16.1642 8.17298 16.7545 8.77009C17.3448 9.36721 17.6765 10.1771 17.6765 11.0215V11.0215Z" fill="#FFFF00"/>
<path fill-rule="evenodd" clip-rule="evenodd" d="M11.8479 8.93752C12.7187 8.91604 13.802 8.99768 14.5199 9.57346C15.2868 9.08929 16.1898 8.8734 17.0899 8.95901L17.5572 9.82268C16.8311 9.75567 16.1001 9.87693 15.4332 10.175C15.9098 10.5306 16.2931 10.9989 16.5493 11.539C16.8055 12.0791 16.927 12.6745 16.903 13.2731C16.7883 13.4192 16.6057 13.5781 16.491 13.7242C16.6609 12.4996 16.0237 11.1332 15.0934 10.4156C15.8495 11.5156 16.2956 12.5039 16.1724 13.8703L15.7476 14.1453C15.943 12.9422 15.6626 11.5242 14.7833 10.7078C15.293 11.4598 15.7943 12.8133 15.4799 14.1883C15.344 14.2313 15.1316 14.3473 14.9957 14.386C15.1622 13.8218 15.2074 13.2282 15.1283 12.6449C15.0491 12.0616 14.8475 11.5022 14.5369 11.0043C13.9506 11.8551 13.7595 13.1528 14.0908 14.3559C13.9294 14.3129 13.8062 14.2614 13.6405 14.2227C13.3984 12.9336 13.734 11.4727 14.316 10.7121C13.7212 11.0602 13.1647 12.5469 13.3219 14.0637L12.9269 13.8789C12.7357 12.7489 13.2412 11.275 13.9676 10.4242C13.1435 10.9485 12.4723 12.2418 12.587 13.6297C12.4596 13.518 12.3449 13.4621 12.2174 13.3461C12.073 12.1344 12.7697 10.9141 13.5811 10.1836C12.8971 9.86995 12.3066 9.80979 11.457 9.82268C11.5887 9.54338 11.7119 9.21682 11.8479 8.93323V8.93752Z" fill="#FF0000"/>
</g>
<defs>
<clipPath id="clip0_546_8049">
<rect width="29" height="22" rx="2" fill="white"/>
</clipPath>
</defs>
</svg>
